<?xml version="1.0" encoding="UTF-8" standalone="no"?>
<!-- Created with Inkscape (http://www.inkscape.org/) -->

<svg
   width="1923.4764"
   height="788.31006"
   viewBox="0 0 1923.4764 788.31006"
   version="1.1"
   id="svg1"
   xml:space="preserve"
   xmlns:xlink="http://www.w3.org/1999/xlink"
   xmlns="http://www.w3.org/2000/svg"
   xmlns:svg="http://www.w3.org/2000/svg"><defs
     id="defs1"><linearGradient
       id="linearGradient15"><stop
         style="stop-color:#ff6600;stop-opacity:1;"
         offset="0"
         id="stop15" /><stop
         style="stop-color:#ff2e00;stop-opacity:1;"
         offset="1"
         id="stop16" /></linearGradient><linearGradient
       id="linearGradient13"><stop
         style="stop-color:#2b1100;stop-opacity:1;"
         offset="0"
         id="stop13" /><stop
         style="stop-color:#412e22;stop-opacity:1;"
         offset="1"
         id="stop14" /></linearGradient><linearGradient
       xlink:href="#linearGradient13"
       id="linearGradient14"
       x1="1181.8711"
       y1="563.39258"
       x2="1457.3711"
       y2="740.0097"
       gradientUnits="userSpaceOnUse"
       gradientTransform="matrix(0.34240874,0,0,0.34240874,800.69249,365.489)" /><linearGradient
       xlink:href="#linearGradient15"
       id="linearGradient16"
       x1="977.85742"
       y1="761.78516"
       x2="1307.9382"
       y2="372.08929"
       gradientUnits="userSpaceOnUse"
       gradientTransform="matrix(0.34240874,0,0,0.34240874,800.69249,365.489)" /><linearGradient
       xlink:href="#linearGradient15"
       id="linearGradient18"
       x1="1043.26"
       y1="555.79968"
       x2="1402.7996"
       y2="555.79968"
       gradientUnits="userSpaceOnUse"
       gradientTransform="matrix(0.34240874,0,0,0.34240874,800.69249,365.489)" /><filter
       style="color-interpolation-filters:sRGB"
       id="filter12"
       x="-0.0010438122"
       y="-0.0069313805"
       width="1.0010438"
       height="1.0143246"><feColorMatrix
         values="0.21 0.72 0.072 -0.06 0 0.21 0.72 0.072 -0.06 0 0.21 0.72 0.072 -0.06 0 0 0 0 1 0 "
         id="feColorMatrix12" /></filter><clipPath
       clipPathUnits="userSpaceOnUse"
       id="clipPath12"><rect
         style="opacity:1;fill:#18181b;fill-opacity:1;stroke-width:1.11601;stroke-linecap:square"
         id="rect13"
         width="715.53772"
         height="293.25314"
         x="905.45264"
         y="291.58313" /></clipPath></defs><g
     id="layer1"
     transform="translate(-62.588188,-1011.3154)"><rect
       style="opacity:1;fill:#18181b;fill-opacity:1;stroke-width:3;stroke-linecap:square"
       id="rect1"
       width="1923.4764"
       height="788.31"
       x="62.588188"
       y="1011.3154" /><circle
       style="opacity:1;fill:#232325;fill-opacity:1;stroke-width:1.80282;stroke-linecap:square"
       id="path4"
       cx="1631.4921"
       cy="1108.0726"
       r="22.63361" /><circle
       style="opacity:1;fill:#232325;fill-opacity:1;stroke-width:1.80282;stroke-linecap:square"
       id="circle4"
       cx="1724.3951"
       cy="1108.0726"
       r="22.63361" /><circle
       style="opacity:1;fill:#232325;fill-opacity:1;stroke-width:1.80282;stroke-linecap:square"
       id="circle5"
       cx="1817.2982"
       cy="1108.0726"
       r="22.63361" /><rect
       style="opacity:1;fill:#232325;fill-opacity:1;stroke-width:1.80282;stroke-linecap:square"
       id="rect5"
       width="136.2233"
       height="7.816072"
       x="1733.785"
       y="1144.8445"
       rx="0"
       ry="3.908036" /><g
       id="layer1-9"
       transform="matrix(2.6881553,0,0,2.6881553,-2371.4092,227.49468)"
       style="opacity:0.32563;filter:url(#filter12)"
       clip-path="url(#clipPath12)"><path
         id="path12"
         style="fill:#ffffff;stroke:none;stroke-width:0.684817;stroke-linecap:round;stroke-linejoin:round;stroke-dasharray:none"
         d="m 1235.2159,505.63182 -29.8404,52.76772 -17.7598,41.16262 c 8.5304,5.84408 18.879,9.25908 30.0838,9.25908 29.4765,0 53.062,-23.58484 53.062,-53.06132 0,-23.32548 -14.7754,-42.94869 -35.5456,-50.1281 z" /><path
         id="path8"
         style="fill:#2b1100;stroke:#ff0000;stroke-width:0.684817;stroke-linecap:round;stroke-linejoin:round;stroke-dasharray:none"
         d="m 1219.453,486.48033 a 69.280163,69.280163 0 0 0 -69.2796,69.27959 69.280163,69.280163 0 0 0 33.8678,59.39855 l 44.9658,-59.85465 32.4941,-54.58343 a 69.280163,69.280163 0 0 0 -42.0481,-14.24006 z" /><path
         style="color:#000000;fill:url(#linearGradient14);stroke:none;stroke-width:0.342409;stroke-linecap:round;stroke-linejoin:round;-inkscape-stroke:none"
         d="m 1217.6995,473.75102 c -45.1209,0 -82.0089,36.88794 -82.0089,82.0089 0,45.12096 36.888,82.00957 82.0089,82.00957 45.121,0 82.0096,-36.88861 82.0096,-82.00957 0,-45.12096 -36.8886,-82.0089 -82.0096,-82.0089 z m 0,28.94758 c 29.4765,0 53.062,23.58481 53.062,53.06132 0,29.47651 -23.5855,53.06132 -53.062,53.06132 -29.4765,0 -53.0613,-23.58481 -53.0613,-53.06132 0,-29.47651 23.5848,-53.06132 53.0613,-53.06132 z"
         id="path1" /><path
         id="path4-4"
         clip-path="none"
         style="color:#000000;fill:url(#linearGradient16);stroke:#ff0000;stroke-width:0.342409;stroke-linecap:round;stroke-linejoin:round;-inkscape-stroke:none"
         d="m 1217.6995,473.75102 c -45.1209,0 -82.0089,36.88799 -82.0089,82.0089 0,29.8264 16.1254,56.04514 40.0859,70.39977 l 17.4629,-23.245 c -17.0403,-8.79228 -28.6012,-26.52424 -28.6012,-47.15477 0,-29.47648 23.5849,-53.06132 53.0613,-53.06132 13.4085,0 25.588,4.89171 34.893,12.98679 l 14.66,-24.62601 -0.1264,-0.6253 c -13.7673,-10.45493 -30.8994,-16.68306 -49.4266,-16.68306 z" /><path
         style="fill:url(#linearGradient18);stroke:#2b1100;stroke-width:3.42409;stroke-linecap:round;stroke-linejoin:miter;stroke-dasharray:none;stroke-opacity:1"
         d="m 1204.2638,571.19926 -44.9094,69.9225 93.6457,-85.81804 h -23.9932 l 50.5453,-84.90501 -96.7603,101.16796 z"
         id="path2" /></g></g></svg>
