<?xml version="1.0" encoding="UTF-8" standalone="no"?>
<!-- Created with Inkscape (http://www.inkscape.org/) -->

<svg
   width="57.283447"
   height="80.562286"
   viewBox="0 0 57.283447 80.562286"
   version="1.1"
   id="svg1"
   xml:space="preserve"
   xmlns="http://www.w3.org/2000/svg"
   xmlns:svg="http://www.w3.org/2000/svg"><defs
     id="defs1"><clipPath
       clipPathUnits="userSpaceOnUse"
       id="clipPath417"><rect
         style="opacity:1;fill:none;fill-opacity:1;stroke:#0000ff;stroke-width:18.2103;stroke-linecap:square;stroke-dasharray:none;stroke-opacity:1"
         id="rect418"
         width="1304.5596"
         height="1368.2056"
         x="-2434.0674"
         y="-2246.3762"
         ry="13.291971" /></clipPath></defs><g
     id="layer1"
     transform="translate(-1620.2924,-331.14313)"><g
       id="g417"
       transform="matrix(0.07713017,0,0,0.07713017,1789.0672,479.43886)"
       clip-path="url(#clipPath417)"><path
         id="path406"
         style="fill:#dddddd;fill-opacity:1;stroke:none;stroke-width:5;stroke-linecap:square;stroke-dasharray:none;stroke-opacity:1"
         d="m -1818.152,-1922.6683 c -136.2936,44.9938 -176.1726,203.6754 -219.5273,369.0429 -43.3548,165.3676 -43.0437,461.1109 -43.9727,499.2012 -0.929,38.0903 1.6056,47.9457 47.1523,85.60932 44.4712,36.7743 208.5142,41.7062 216.3477,41.9239 v 0.1211 c 0,0 1.2647,-0.059 1.3125,-0.061 0.048,0 1.3144,0.061 1.3144,0.061 v -0.1211 c 7.8341,-0.2177 171.8766,-5.1497 216.3477,-41.9239 45.5468,-37.66362 48.0813,-47.51902 47.1523,-85.60932 -0.929,-38.0903 -0.6198,-333.8336 -43.9746,-499.2012 -43.3547,-165.3675 -83.2318,-324.0491 -219.5254,-369.0429 z" /><path
         id="path415"
         style="fill:#f0f0f0;fill-opacity:1;stroke:none;stroke-width:5;stroke-linecap:square;stroke-dasharray:none;stroke-opacity:1"
         d="m -1816.8385,-1922.6683 1.1582,995.89062 c 0.031,0 0.1543,0.01 0.1543,0.01 v -0.1211 c 7.834,-0.2177 171.8785,-5.1497 216.3496,-41.9238 45.5467,-37.66362 48.0794,-47.51912 47.1504,-85.60942 -0.929,-38.0903 -0.6199,-333.8337 -43.9747,-499.2012 -43.3546,-165.3673 -83.2319,-324.0492 -219.5253,-369.0429 z" /><circle
         style="fill:#69ade0;fill-opacity:1;stroke:#ff8904;stroke-width:30;stroke-linecap:square;stroke-dasharray:none;stroke-opacity:1"
         id="circle411"
         cx="-1815.5253"
         cy="-1318.8889"
         r="172.18065" /><path
         id="path407"
         style="fill:#f54a00;fill-opacity:1;stroke:none;stroke-width:5;stroke-linecap:square;stroke-dasharray:none;stroke-opacity:1"
         d="m -2022.9335,-962.76018 c 0.197,12.7357 0.6099,39.2731 0.7344,49.2383 0.1549,12.3871 27.096,43.9752 76.1719,60.0781 49.0758,16.1032 130.5019,17.0313 130.5019,17.0313 0,0 81.426,-0.9281 130.502,-17.0313 49.0759,-16.103 76.017,-47.691 76.1719,-60.0781 0.1245,-9.9652 0.5374,-36.5026 0.7344,-49.2383 -52.9842,30.5129 -193.6741,35.4828 -207.4083,35.9004 -13.7341,-0.4176 -154.424,-5.3875 -207.4082,-35.9004 z" /><path
         id="path408"
         style="fill:#ff6900;fill-opacity:1;stroke:none;stroke-width:5;stroke-linecap:square;stroke-dasharray:none;stroke-opacity:1"
         d="m -1558.1754,-1257.4887 c 5.5215,99.8835 5.684,183.9444 6.1503,203.0645 0.6246,25.6085 -0.6529,38.5646 -15.1777,55.67972 43.5508,47.0652 121.707,130.746 121.707,130.746 l -13.0078,-279.94922 z" /><path
         id="path409"
         style="fill:#f54a00;fill-opacity:1;stroke:none;stroke-width:5;stroke-linecap:square;stroke-dasharray:none;stroke-opacity:1"
         d="m -1815.5251,-1922.6683 c -103.87,34.29 -151.7065,134.6676 -187.7949,253.6562 13.9134,3.6615 36.6577,8.9901 60.8633,11.1816 31.8086,2.8798 102.2063,5.0529 126.2168,5.7617 v 0.045 c 0.1636,0 0.5463,-0.017 0.7148,-0.022 0.1686,0 0.5513,0.017 0.7149,0.022 v -0.045 c 24.0105,-0.7088 94.4082,-2.8819 126.2168,-5.7617 24.2056,-2.1915 46.9499,-7.5201 60.8633,-11.1816 -36.0884,-118.9886 -83.9249,-219.3662 -187.795,-253.6562 z" /><path
         id="rect410"
         style="fill:#c9e8ff;fill-opacity:1;stroke:none;stroke-width:5;stroke-linecap:square;stroke-dasharray:none;stroke-opacity:1"
         d="m -1723.7555,-1464.5141 -191.543,285.4688 a 172.18065,172.18065 0 0 0 72.3281,29.9453 l 174.25,-259.6953 a 172.18065,172.18065 0 0 0 -55.0351,-55.7188 z" /><path
         id="rect411"
         style="fill:#c9e8ff;fill-opacity:1;stroke:none;stroke-width:5;stroke-linecap:square;stroke-dasharray:none;stroke-opacity:1"
         d="m -1782.7204,-1487.8988 -176.7083,263.3585 a 172.18065,172.18065 0 0 0 21.8789,26.5058 l 187.845,-279.9561 a 172.18065,172.18065 0 0 0 -33.0156,-9.9082 z" /><circle
         style="fill:none;fill-opacity:1;stroke:#f54a00;stroke-width:30;stroke-linecap:square;stroke-dasharray:none;stroke-opacity:1"
         id="path410"
         cx="-1815.5253"
         cy="-1318.8889"
         r="172.18065" /><path
         id="path411"
         style="fill:#f54a00;fill-opacity:1;stroke:none;stroke-width:5;stroke-linecap:square;stroke-dasharray:none;stroke-opacity:1"
         d="m -2075.5017,-1257.4887 c -5.5215,99.8835 -5.684,183.9444 -6.1503,203.0645 -0.6246,25.6085 0.6529,38.5646 15.1777,55.67972 -43.5508,47.0652 -121.707,130.746 -121.707,130.746 l 13.0078,-279.94922 z" /><path
         id="path412"
         style="color:#000000;fill:#ff6900;fill-opacity:1;stroke-linecap:square;-inkscape-stroke:none"
         d="m -1812.1452,-1506.1918 c -1.3509,0.023 -2.6448,0.1083 -3.9512,0.1797 l 0.031,30.0215 0.1777,-0.014 c 20.2573,-1.5246 62.0489,8.1903 96.0489,33.3711 33.9999,25.1808 61.4938,64.0759 61.4941,123.7442 3e-4,60.0864 -27.7756,98.8942 -61.832,123.9629 -34.0564,25.0687 -75.8017,34.5953 -94.8477,33.2168 l -0.7324,-0.053 0.029,30.0352 c 30.1018,1.7161 73.9351,-10.0364 113.3359,-39.0391 40.0301,-29.4659 74.0473,-78.5082 74.0469,-148.123 -4e-4,-69.1603 -33.6505,-118.2358 -73.6387,-147.8516 -34.9896,-25.9139 -73.8498,-38.2682 -103.8691,-39.3828 -2.1443,-0.08 -4.2436,-0.1024 -6.293,-0.068 z" /><path
         id="path414"
         style="fill:#ff6900;fill-opacity:1;stroke:none;stroke-width:5;stroke-linecap:square;stroke-dasharray:none;stroke-opacity:1"
         d="m -1815.526,-1922.6683 c -0.445,0.1469 -0.8696,0.3175 -1.3125,0.4668 l 0.3144,270.123 c 0.057,0 0.2283,0.01 0.2852,0.01 v 0.045 c 0.1636,0 0.5444,-0.017 0.7129,-0.022 0.1686,0 0.5532,0.016 0.7168,0.022 v -0.045 c 24.0104,-0.7088 94.4082,-2.8819 126.2167,-5.7617 24.2056,-2.1915 46.9499,-7.5202 60.8633,-11.1817 -36.0883,-118.9885 -83.9269,-219.3663 -187.7968,-253.6562 z" /><path
         id="path416"
         style="fill:#ff6900;fill-opacity:1;stroke:none;stroke-width:30;stroke-linecap:square;stroke-dasharray:none;stroke-opacity:1"
         d="m -1608.1178,-962.76008 c -52.9842,30.5128 -193.6741,35.4828 -207.4082,35.9004 -0.025,-8e-4 -0.1287,-0.01 -0.1543,-0.01 l 0.1054,90.4512 c 2e-4,0 0.049,0 0.049,0 0,0 81.426,-0.928 130.5019,-17.0312 49.0759,-16.103 76.017,-47.6911 76.1719,-60.0781 0.1245,-9.9652 0.5374,-36.5026 0.7344,-49.2383 z" /></g></g></svg>
