<?xml version="1.0" encoding="UTF-8" standalone="no"?>
<!-- Created with Inkscape (http://www.inkscape.org/) -->

<svg
   width="26.225098"
   height="24.991943"
   viewBox="0 0 26.225098 24.991943"
   version="1.1"
   id="svg1"
   xml:space="preserve"
   inkscape:version="1.3.2 (091e20e, 2023-11-25, custom)"
   sodipodi:docname="indiecat.svg"
   xmlns:inkscape="http://www.inkscape.org/namespaces/inkscape"
   xmlns:sodipodi="http://sodipodi.sourceforge.net/DTD/sodipodi-0.dtd"
   xmlns="http://www.w3.org/2000/svg"
   xmlns:svg="http://www.w3.org/2000/svg"><sodipodi:namedview
     id="namedview1"
     pagecolor="#ffffff"
     bordercolor="#000000"
     borderopacity="0.25"
     inkscape:showpageshadow="2"
     inkscape:pageopacity="0.0"
     inkscape:pagecheckerboard="0"
     inkscape:deskcolor="#d1d1d1"
     inkscape:document-units="px"
     inkscape:zoom="0.49270833"
     inkscape:cx="345.03171"
     inkscape:cy="439.40803"
     inkscape:window-width="1920"
     inkscape:window-height="1046"
     inkscape:window-x="-11"
     inkscape:window-y="-11"
     inkscape:window-maximized="1"
     inkscape:current-layer="layer1" /><defs
     id="defs1" /><g
     inkscape:label="Layer 1"
     inkscape:groupmode="layer"
     id="layer1"
     transform="translate(-1371.769,-576.32068)"><g
       id="g105"
       transform="translate(243.922,-96.130848)"><path
         id="path78"
         style="fill:#f26365;fill-opacity:1;stroke:none;stroke-linecap:round"
         d="m 1139.2565,674.28323 c 0,0 -0.6351,7.10374 -3.5527,9.76758 -0.046,0.0324 0.017,0.11067 0.025,0.16601 0.1295,0.88472 1.7196,11.45951 3.9082,12.59961 2.2833,1.18948 4.4387,-5.91459 5.9609,-11.36914 0.7304,-2.61705 1.1051,-4.69241 1.3027,-6.16015 l 0.2207,-2.4668 c -2.537,0 -7.8652,-2.53711 -7.8652,-2.53711 z"
         sodipodi:nodetypes="cscssccc" /><g
         id="g90"
         transform="translate(204.98943,215.13742)"><path
           style="fill:none;stroke:#3b1b2a;stroke-linecap:round;stroke-opacity:1"
           d="m 923.35758,472.33917 c 0,0 4.4398,-0.7611 7.3573,-3.42495 2.9176,-2.66384 3.5518,-9.76744 3.5518,-9.76744 0,0 5.3277,2.537 7.8647,2.537 2.537,0 6.4513,-3.8697 6.4513,-3.8697"
           id="path79"
           sodipodi:nodetypes="cscsc" /><path
           style="fill:none;stroke:#3e192a;stroke-linecap:round;stroke-opacity:1"
           d="m 930.71488,468.91422 c 0,0 1.6491,11.57453 3.9324,12.76401 2.2833,1.18948 4.4397,-5.91411 5.9619,-11.36866 1.5222,-5.45454 1.5222,-8.62579 1.5222,-8.62579"
           id="path80"
           sodipodi:nodetypes="cssc" /></g></g></g></svg>
