<?xml version="1.0" encoding="UTF-8" standalone="no"?>
<!-- Created with Inkscape (http://www.inkscape.org/) -->

<svg
   width="164.1897"
   height="173.16861"
   viewBox="0 0 164.1897 173.16861"
   version="1.1"
   id="svg1"
   xml:space="preserve"
   xmlns:inkscape="http://www.inkscape.org/namespaces/inkscape"
   xmlns:sodipodi="http://sodipodi.sourceforge.net/DTD/sodipodi-0.dtd"
   xmlns:xlink="http://www.w3.org/1999/xlink"
   xmlns="http://www.w3.org/2000/svg"
   xmlns:svg="http://www.w3.org/2000/svg"><sodipodi:namedview
     id="namedview1"
     pagecolor="#ffffff"
     bordercolor="#000000"
     borderopacity="0.25"
     inkscape:showpageshadow="2"
     inkscape:pageopacity="0.0"
     inkscape:pagecheckerboard="0"
     inkscape:deskcolor="#d1d1d1"
     inkscape:document-units="px"
     inkscape:zoom="0.80729167"
     inkscape:cx="1073.9613"
     inkscape:cy="533.26452"
     inkscape:window-width="1920"
     inkscape:window-height="1046"
     inkscape:window-x="-11"
     inkscape:window-y="-11"
     inkscape:window-maximized="1"
     inkscape:current-layer="layer1" /><defs
     id="defs1"><linearGradient
       id="linearGradient15"
       inkscape:collect="always"><stop
         style="stop-color:#ff6600;stop-opacity:1;"
         offset="0"
         id="stop15" /><stop
         style="stop-color:#ff2e00;stop-opacity:1;"
         offset="1"
         id="stop16" /></linearGradient><linearGradient
       id="linearGradient13"
       inkscape:collect="always"><stop
         style="stop-color:#2b1100;stop-opacity:1;"
         offset="0"
         id="stop13" /><stop
         style="stop-color:#412e22;stop-opacity:1;"
         offset="1"
         id="stop14" /></linearGradient><linearGradient
       inkscape:collect="always"
       xlink:href="#linearGradient13"
       id="linearGradient14"
       x1="1181.8711"
       y1="563.39258"
       x2="1457.3711"
       y2="740.0097"
       gradientUnits="userSpaceOnUse"
       gradientTransform="matrix(0.34240874,0,0,0.34240874,800.69249,365.489)" /><linearGradient
       inkscape:collect="always"
       xlink:href="#linearGradient15"
       id="linearGradient16"
       x1="977.85742"
       y1="761.78516"
       x2="1307.9382"
       y2="372.08929"
       gradientUnits="userSpaceOnUse"
       gradientTransform="matrix(0.34240874,0,0,0.34240874,800.69249,365.489)" /><linearGradient
       inkscape:collect="always"
       xlink:href="#linearGradient15"
       id="linearGradient18"
       x1="1043.26"
       y1="555.79968"
       x2="1402.7996"
       y2="555.79968"
       gradientUnits="userSpaceOnUse"
       gradientTransform="matrix(0.34240874,0,0,0.34240874,800.69249,365.489)" /></defs><g
     inkscape:label="Layer 1"
     inkscape:groupmode="layer"
     id="layer1"
     transform="translate(-1135.5194,-469.21536)"><path
       id="path12"
       style="fill:#ffffff;stroke:none;stroke-width:0.684817;stroke-linecap:round;stroke-linejoin:round;stroke-dasharray:none"
       d="m 1235.2159,505.63182 -29.8404,52.76772 -17.7598,41.16262 c 8.5304,5.84408 18.879,9.25908 30.0838,9.25908 29.4765,0 53.062,-23.58484 53.062,-53.06132 0,-23.32548 -14.7754,-42.94869 -35.5456,-50.1281 z" /><path
       id="path8"
       style="fill:#2b1100;stroke:#ff0000;stroke-width:0.684817;stroke-linecap:round;stroke-linejoin:round;stroke-dasharray:none"
       d="m 1219.453,486.48033 a 69.280163,69.280163 0 0 0 -69.2796,69.27959 69.280163,69.280163 0 0 0 33.8678,59.39855 l 44.9658,-59.85465 32.4941,-54.58343 a 69.280163,69.280163 0 0 0 -42.0481,-14.24006 z" /><path
       style="color:#000000;fill:url(#linearGradient14);stroke:none;stroke-width:0.342409;stroke-linecap:round;stroke-linejoin:round;-inkscape-stroke:none"
       d="m 1217.6995,473.75102 c -45.1209,0 -82.0089,36.88794 -82.0089,82.0089 0,45.12096 36.888,82.00957 82.0089,82.00957 45.121,0 82.0096,-36.88861 82.0096,-82.00957 0,-45.12096 -36.8886,-82.0089 -82.0096,-82.0089 z m 0,28.94758 c 29.4765,0 53.062,23.58481 53.062,53.06132 0,29.47651 -23.5855,53.06132 -53.062,53.06132 -29.4765,0 -53.0613,-23.58481 -53.0613,-53.06132 0,-29.47651 23.5848,-53.06132 53.0613,-53.06132 z"
       id="path1" /><path
       id="path4"
       clip-path="none"
       style="color:#000000;fill:url(#linearGradient16);stroke:#ff0000;stroke-width:0.342409;stroke-linecap:round;stroke-linejoin:round;-inkscape-stroke:none"
       d="m 1217.6995,473.75102 c -45.1209,0 -82.0089,36.88799 -82.0089,82.0089 0,29.8264 16.1254,56.04514 40.0859,70.39977 l 17.4629,-23.245 c -17.0403,-8.79228 -28.6012,-26.52424 -28.6012,-47.15477 0,-29.47648 23.5849,-53.06132 53.0613,-53.06132 13.4085,0 25.588,4.89171 34.893,12.98679 l 14.66,-24.62601 -0.1264,-0.6253 c -13.7673,-10.45493 -30.8994,-16.68306 -49.4266,-16.68306 z" /><path
       style="fill:url(#linearGradient18);stroke:#2b1100;stroke-width:3.42409;stroke-linecap:round;stroke-linejoin:miter;stroke-dasharray:none;stroke-opacity:1"
       d="m 1204.2638,571.19926 -44.9094,69.9225 93.6457,-85.81804 h -23.9932 l 50.5453,-84.90501 -96.7603,101.16796 z"
       id="path2"
       sodipodi:nodetypes="ccccccc" /></g></svg>
