<?xml version="1.0" encoding="UTF-8" standalone="no"?>
<!-- Created with Inkscape (http://www.inkscape.org/) -->

<svg
   width="1921"
   height="1081"
   viewBox="0 0 1921 1081"
   version="1.1"
   id="svg1"
   xml:space="preserve"
   xmlns:inkscape="http://www.inkscape.org/namespaces/inkscape"
   xmlns:sodipodi="http://sodipodi.sourceforge.net/DTD/sodipodi-0.dtd"
   xmlns="http://www.w3.org/2000/svg"
   xmlns:svg="http://www.w3.org/2000/svg"><sodipodi:namedview
     id="namedview1"
     pagecolor="#ffffff"
     bordercolor="#000000"
     borderopacity="0.25"
     inkscape:showpageshadow="2"
     inkscape:pageopacity="0.0"
     inkscape:pagecheckerboard="0"
     inkscape:deskcolor="#d1d1d1"
     inkscape:document-units="px" /><defs
     id="defs1" /><g
     inkscape:label="Layer 1"
     inkscape:groupmode="layer"
     id="layer1"
     transform="translate(1.5147992,-0.38794926)"><g
       inkscape:label="Layer 1"
       id="layer1-0"
       transform="translate(-1.0147992,0.88794926)"
       style="fill:#f4f4f5;fill-opacity:1"><rect
         style="opacity:1;fill:#f4f4f5;fill-opacity:1;stroke:#ffccaa;stroke-linecap:round"
         id="rect1"
         width="1920"
         height="1080"
         x="0"
         y="0" /><path
         style="fill:#71717b;fill-opacity:1;stroke-width:3.48576"
         d="m 834.56114,648.96273 c -2.8758,-1.05124 -8.758,-5.12233 -13.0716,-9.04685 -7.7586,-7.05888 -7.843,-8.13277 -7.843,-100.03585 v -92.9004 l 8.9908,-8.4506 8.9909,-8.45058 119.1113,-1.05036 c 65.51086,-0.5777 124.21496,-0.11329 130.45346,1.03199 6.2384,1.14525 14.4736,5.44302 18.3002,9.55058 6.5972,7.0814 6.952,12.26473 6.8468,100.0552 -0.1186,99.67627 -0.3775,101.1695 -18.7001,108.1358 -9.8553,3.74692 -243.07806,4.81687 -253.07876,1.16107 z m 233.54666,-68.04302 v -32.16134 l -25.1847,-25.35377 c -13.8517,-13.94456 -26.7679,-25.35374 -28.7032,-25.35374 -1.9349,0 -21.17296,17.60429 -42.75046,39.12066 l -39.232,39.12066 -16.7145,-16.46319 c -9.1931,-9.05476 -18.1835,-16.4632 -19.9794,-16.4632 -1.7959,0 -12.3298,8.9703 -23.4093,19.93401 -18.2944,18.10342 -20.1443,21.30453 -20.1443,34.85764 v 14.92364 h 108.0591 108.05876 z M 899.91954,514.61364 c 17.6237,-16.45026 3.5133,-51.42043 -20.7479,-51.42043 -14.787,0 -23.5973,5.88432 -29.3209,19.58313 -4.4667,10.68973 -4.3983,13.3921 0.603,23.93197 9.3694,19.74455 32.7746,23.48506 49.4658,7.90533 z"
         id="path1" /></g></g></svg>
