<?xml version="1.0" encoding="UTF-8" standalone="no"?>
<!-- Created with Inkscape (http://www.inkscape.org/) -->

<svg
   width="80.713013"
   height="81.876221"
   viewBox="0 0 80.713013 81.876221"
   version="1.1"
   id="svg1"
   xml:space="preserve"
   xmlns="http://www.w3.org/2000/svg"
   xmlns:svg="http://www.w3.org/2000/svg"><defs
     id="defs1" /><g
     id="layer1"
     transform="translate(-1329.884,-234.98846)"><path
       id="path6"
       style="color:#000000;fill:#808080;stroke:#999999;stroke-width:5;stroke-linecap:round;stroke-dasharray:none"
       d="m 1384.7246,284.4668 a 28.831955,28.831957 0 0 1 -6.7402,6.39453 l 22.207,22.16211 a 4.6409803,4.6409803 0 0 0 6.5625,-0.004 4.6409803,4.6409803 0 0 0 0,-6.5625 z" /><ellipse
       style="fill:#b3b3b3;fill-opacity:1;stroke:#f9f9f9;stroke-width:6.33609;stroke-linecap:round;stroke-dasharray:none"
       id="path1"
       cx="1361.884"
       cy="266.98846"
       rx="28.831955"
       ry="28.831957" /><path
       id="path2"
       style="color:#000000;fill:#000000;stroke-linecap:round;-inkscape-stroke:none"
       d="m 1347.6211,254.55273 a 2.5,2.5 0 0 0 -1.4902,0.71094 2.5,2.5 0 0 0 -0.014,3.53516 l 1.6699,1.68359 -1.7129,1.69727 a 2.5,2.5 0 0 0 -0.014,3.53515 2.5,2.5 0 0 0 3.5352,0.0156 l 1.7129,-1.69727 1.7246,1.73828 a 2.5,2.5 0 0 0 3.5352,0.0156 2.5,2.5 0 0 0 0.014,-3.53711 l -1.7246,-1.73828 1.543,-1.5293 a 2.5,2.5 0 0 0 0.014,-3.53515 2.5,2.5 0 0 0 -3.5352,-0.0156 l -1.543,1.5293 -1.6699,-1.6836 a 2.5,2.5 0 0 0 -2.0449,-0.72461 z" /><path
       id="path4"
       style="color:#000000;fill:#000000;stroke-linecap:round;-inkscape-stroke:none"
       d="m 1368.3709,254.55273 a 2.5,2.5 0 0 0 -1.4902,0.71094 2.5,2.5 0 0 0 -0.014,3.53516 l 1.6699,1.68359 -1.7129,1.69727 a 2.5,2.5 0 0 0 -0.014,3.53515 2.5,2.5 0 0 0 3.5352,0.0156 l 1.7129,-1.69727 1.7246,1.73828 a 2.5,2.5 0 0 0 3.5352,0.0156 2.5,2.5 0 0 0 0.014,-3.53711 l -1.7246,-1.73828 1.543,-1.5293 a 2.5,2.5 0 0 0 0.014,-3.53515 2.5,2.5 0 0 0 -3.5352,-0.0156 l -1.543,1.5293 -1.6699,-1.6836 a 2.5,2.5 0 0 0 -2.0449,-0.72461 z" /><path
       style="fill:none;fill-opacity:1;stroke:#000000;stroke-width:5;stroke-linecap:round;stroke-dasharray:none"
       d="m 1352.6148,278.85661 c 0,0 3.4051,-3.84961 8.4907,-3.78818 4.9814,0.0602 8.9414,4.01311 8.9414,4.01311"
       id="path5" /></g></svg>
