<?xml version="1.0" encoding="UTF-8" standalone="no"?>
<!-- Created with Inkscape (http://www.inkscape.org/) -->

<svg
   width="1920"
   height="1080"
   viewBox="0 0 1920 1080"
   version="1.1"
   id="svg1"
   xml:space="preserve"
   inkscape:export-filename="video-game-background.svg"
   inkscape:export-xdpi="96"
   inkscape:export-ydpi="96"
   inkscape:version="1.3.2 (091e20e, 2023-11-25, custom)"
   sodipodi:docname="video_game_background.svg"
   xmlns:inkscape="http://www.inkscape.org/namespaces/inkscape"
   xmlns:sodipodi="http://sodipodi.sourceforge.net/DTD/sodipodi-0.dtd"
   xmlns:xlink="http://www.w3.org/1999/xlink"
   xmlns="http://www.w3.org/2000/svg"
   xmlns:svg="http://www.w3.org/2000/svg"><sodipodi:namedview
     id="namedview1"
     pagecolor="#ffffff"
     bordercolor="#000000"
     borderopacity="0.25"
     inkscape:showpageshadow="2"
     inkscape:pageopacity="0.0"
     inkscape:pagecheckerboard="0"
     inkscape:deskcolor="#d1d1d1"
     inkscape:document-units="px"
     inkscape:zoom="0.39295986"
     inkscape:cx="736.71646"
     inkscape:cy="627.29053"
     inkscape:window-width="1920"
     inkscape:window-height="1046"
     inkscape:window-x="-11"
     inkscape:window-y="-11"
     inkscape:window-maximized="1"
     inkscape:current-layer="layer1" /><defs
     id="defs1" /><g
     inkscape:label="Layer 1"
     inkscape:groupmode="layer"
     id="layer1"><path
       d="m -426.07597,920.41268 c -9.46786,-2.834 -12.44106,2.5357 -25.68341,2.5357 -13.24235,0 -16.21555,-5.391 -25.68341,-2.5357 -9.46785,2.834 -14.19124,12.8701 -18.66158,31.7065 -4.47035,18.8577 -3.64798,32.4736 1.62366,35.0093 5.27163,2.5356 11.21804,-3.2815 16.89031,-10.4623 4.59687,-5.6254 6.8953,-5.9876 25.83102,-5.9876 18.91463,0 20.87567,0.1492 25.83101,5.9876 5.67228,7.1808 11.61869,12.9979 16.89032,10.4623 5.27164,-2.5357 6.09401,-16.1516 1.62366,-35.0093 -4.47034,-18.8364 -9.21481,-28.8512 -18.66158,-31.7065 z m -52.63201,34.8601 c -4.57578,0 -8.28701,-3.7715 -8.28701,-8.438 0,-4.6452 3.71123,-8.438 8.28701,-8.438 4.57578,0 8.28701,3.7928 8.28701,8.438 0,4.6452 -3.71123,8.438 -8.28701,8.438 z m 38.27207,-4.2829 c -2.23517,0 -4.0697,-1.8538 -4.0697,-4.1338 0,-2.28 1.83453,-4.1338 4.0697,-4.1338 2.25626,0 4.09079,1.8538 4.09079,4.1338 -0.0211,2.28 -1.83453,4.1338 -4.09079,4.1338 z m 8.89852,9.0346 c -2.23517,0 -4.0697,-1.8538 -4.0697,-4.1337 0,-2.3013 1.83453,-4.1338 4.0697,-4.1338 2.25626,0 4.09079,1.8538 4.09079,4.1338 0,2.3012 -1.83453,4.1337 -4.09079,4.1337 z m 0,-18.0906 c -2.23517,0 -4.0697,-1.8538 -4.0697,-4.1338 0,-2.2799 1.83453,-4.1337 4.0697,-4.1337 2.25626,0 4.09079,1.8538 4.09079,4.1337 0,2.28 -1.83453,4.1338 -4.09079,4.1338 z m 8.91961,9.056 c -2.25626,0 -4.0697,-1.8538 -4.0697,-4.1338 0,-2.28 1.83452,-4.1338 4.0697,-4.1338 2.23517,0 4.0697,1.8538 4.0697,4.1338 0,2.28 -1.81344,4.1338 -4.0697,4.1338 z"
       id="path1"
       style="fill:#27272a;fill-opacity:1;stroke-width:0.21197" /><g
       id="g16"
       transform="matrix(3.616762,0,0,3.616762,-252.20012,847.8772)"
       style="fill:#262629;fill-opacity:1"><path
         d="m 23.938477,22.259108 -11.5,-21.01866 c -0.175782,-0.3205972 -0.701172,-0.3205972 -0.876953,0 L 0.0615235,22.259108 C -0.0234374,22.41403 -0.0205078,22.602674 0.0703126,22.754665 0.1601563,22.906656 0.3232422,23 0.5,23 h 23 c 0.176758,0 0.339844,-0.09334 0.429687,-0.245335 0.09082,-0.151991 0.09375,-0.340635 0.0088,-0.495557 z M 7.09375,12.5 h 9.8125 L 12,21.458984 Z"
         fill="#303c42"
         id="path1-4"
         style="fill:#262629;fill-opacity:1" /><g
         id="g1"
         style="fill:#262629;fill-opacity:1" /><g
         id="g2"
         style="fill:#262629;fill-opacity:1" /><g
         id="g3"
         style="fill:#262629;fill-opacity:1" /><g
         id="g4"
         style="fill:#262629;fill-opacity:1" /><g
         id="g5"
         style="fill:#262629;fill-opacity:1" /><g
         id="g6"
         style="fill:#262629;fill-opacity:1" /><g
         id="g7"
         style="fill:#262629;fill-opacity:1" /><g
         id="g8"
         style="fill:#262629;fill-opacity:1" /><g
         id="g9"
         style="fill:#262629;fill-opacity:1" /><g
         id="g10"
         style="fill:#262629;fill-opacity:1" /><g
         id="g11"
         style="fill:#262629;fill-opacity:1" /><g
         id="g12"
         style="fill:#262629;fill-opacity:1" /><g
         id="g13"
         style="fill:#262629;fill-opacity:1" /><g
         id="g14"
         style="fill:#262629;fill-opacity:1" /><g
         id="g15"
         style="fill:#262629;fill-opacity:1" /></g><path
       d="m -360.80145,851.49396 c 16.25729,0 30.8753,-8.8959 38.50779,-23.2297 l -34.13637,-20.4845 34.13637,-20.4844 c -7.63249,-14.3339 -22.2505,-23.2297 -38.50779,-23.2297 -24.10398,0 -43.71415,19.6101 -43.71415,43.7141 0,24.104 19.61017,43.7142 43.71415,43.7142 z m -2.18571,-69.9427 a 6.5593505,6.5593505 0 1 1 -0.005,13.1187 6.5593505,6.5593505 0 0 1 0.005,-13.1187 z"
       id="path1-6"
       style="fill:#262629;fill-opacity:1;stroke-width:4.37141" /><path
       d="m -300.65286,1016.8886 c -23.49261,0.7042 -41.6022,21.1991 -41.6022,44.7006 v 58.9987 c 0,3.1878 3.85172,4.7816 6.10508,2.5283 l 5.57081,-4.1423 c 1.48882,-1.1066 3.57676,-0.892 4.8085,0.494 l 9.60137,10.8085 c 1.39718,1.3972 3.66172,1.3972 5.05889,0 l 9.10286,-10.2496 c 1.42399,-1.6029 3.92549,-1.6029 5.34725,0 l 9.10286,10.2496 c 1.39716,1.3972 3.6617,1.3972 5.05888,0 l 9.60137,-10.8085 c 1.23174,-1.386 3.31968,-1.6029 4.8085,-0.494 l 5.57081,4.1423 c 2.25336,2.2533 6.10508,0.6572 6.10508,-2.5283 v -60.7982 c 0,-24.1431 -19.93374,-43.6298 -44.24006,-42.9011 z m -12.98811,50.0546 c -3.95009,0 -7.15353,-3.2034 -7.15353,-7.1535 0,-3.9501 3.20344,-7.1536 7.15353,-7.1536 3.95008,0 7.15352,3.2035 7.15352,7.1536 0,3.9501 -3.20344,7.1535 -7.15352,7.1535 z m 28.61408,0 c -3.95008,0 -7.15352,-3.2034 -7.15352,-7.1535 0,-3.9501 3.20344,-7.1536 7.15352,-7.1536 3.95009,0 7.15353,3.2035 7.15353,7.1536 0,3.9501 -3.20344,7.1535 -7.15353,7.1535 z"
       id="path1-3"
       style="fill:#262629;fill-opacity:1;stroke-width:0.223548" /><path
       d="m -311.13108,695.29709 v -12.79152 h 25.58303 v 12.79152 z m 38.37454,0 h 25.58303 v -12.79152 h -25.58303 z m 63.95757,-51.16605 v 12.79151 25.58302 h -12.79152 V 656.92255 H -234.382 v 25.58302 h -12.79151 v -12.7915 h -63.95757 v 12.7915 h -12.79152 v -25.58302 h -12.7915 v 25.58302 h -12.79152 v -25.58302 -12.79151 h 12.79152 v -12.79152 h 12.7915 v -12.79151 h 12.79152 V 605.7565 h 12.79151 v 12.79151 h 38.37454 V 605.7565 h 12.79152 v 12.79151 h 12.79151 v 12.79151 h 12.79151 v 12.79152 z m -89.5406,-12.79152 h -12.79151 v 12.79152 h 12.79151 z m 51.16606,0 h -12.79152 v 12.79152 h 12.79152 z m 12.79151,-38.37454 h -12.79151 v 12.79152 h 12.79151 z m -89.5406,0 v 12.79152 h 12.79152 v -12.79152 z"
       id="path103"
       style="fill:#27272a;fill-opacity:1;stroke-width:0.365472" /><use
       id="use135"
       inkscape:spray-origin="#g16"
       xlink:href="#g16"
       transform="matrix(0.84460341,0.46351158,-0.46351158,0.84460341,2279.9148,-147.67537)" /><use
       id="use136"
       inkscape:spray-origin="#path1-6"
       xlink:href="#path1-6"
       transform="matrix(0.89719259,0.46033942,-0.46033942,0.89719259,883.57138,-98.318352)" /><use
       id="use140"
       inkscape:spray-origin="#path1"
       xlink:href="#path1"
       transform="matrix(1.0135968,0.11799082,-0.11799082,1.0135968,1048.6003,-219.91176)" /><use
       id="use141"
       inkscape:spray-origin="#path1-6"
       xlink:href="#path1-6"
       transform="matrix(0.9229881,-0.44454963,0.44454963,0.9229881,1299.4631,-300.05938)" /><use
       id="use142"
       inkscape:spray-origin="#path1-6"
       xlink:href="#path1-6"
       transform="matrix(0.92624186,-0.32673791,0.32673791,0.92624186,516.86241,-732.40573)" /><use
       id="use143"
       inkscape:spray-origin="#path1-6"
       xlink:href="#path1-6"
       transform="matrix(0.98824227,-0.2182437,0.2182437,0.98824227,1308.0679,-743.34463)" /><use
       id="use144"
       inkscape:spray-origin="#path103"
       xlink:href="#path103"
       transform="matrix(0.80226676,0.57692533,-0.57692533,0.80226676,834.13126,474.4263)" /><use
       id="use145"
       inkscape:spray-origin="#path1-6"
       xlink:href="#path1-6"
       transform="matrix(0.81221119,-0.51336053,0.51336053,0.81221119,339.40455,168.52388)" /><use
       id="use146"
       inkscape:spray-origin="#path1-6"
       xlink:href="#path1-6"
       transform="matrix(0.9972329,-0.11070237,0.11070237,0.9972329,997.78558,-94.852127)" /><use
       id="use147"
       inkscape:spray-origin="#path1-6"
       xlink:href="#path1-6"
       transform="matrix(0.94259482,-0.43549492,0.43549492,0.94259482,1513.5705,-751.13836)" /><use
       id="use148"
       inkscape:spray-origin="#g16"
       xlink:href="#g16"
       transform="matrix(0.89017643,0.47746664,-0.47746664,0.89017643,1028.1003,-281.73855)" /><use
       id="use149"
       inkscape:spray-origin="#path103"
       xlink:href="#path103"
       transform="matrix(0.95475129,-0.16429758,0.16429758,0.95475129,1698.4083,276.47063)" /><use
       id="use150"
       inkscape:spray-origin="#path1-6"
       xlink:href="#path1-6"
       transform="matrix(0.82977559,-0.60062776,0.60062776,0.82977559,1149.633,31.876459)" /><use
       id="use151"
       inkscape:spray-origin="#path103"
       xlink:href="#path103"
       transform="matrix(0.97736006,0.01795446,-0.01795446,0.97736006,1598.9308,-271.78516)" /><use
       id="use152"
       inkscape:spray-origin="#path1-3"
       xlink:href="#path1-3"
       transform="matrix(0.93920448,0.2387931,-0.2387931,0.93920448,1238.8771,-636.51659)" /><use
       id="use153"
       inkscape:spray-origin="#path1"
       xlink:href="#path1"
       transform="matrix(0.89965592,0.37103579,-0.37103579,0.89965592,1551.5612,-602.63984)" /><use
       id="use154"
       inkscape:spray-origin="#path103"
       xlink:href="#path103"
       transform="matrix(0.81054912,-0.54593283,0.54593283,0.81054912,925.70557,86.965764)" /><use
       id="use155"
       inkscape:spray-origin="#path103"
       xlink:href="#path103"
       transform="matrix(0.94573791,-0.25268474,0.25268474,0.94573791,253.68491,-559.56744)" /><use
       id="use156"
       inkscape:spray-origin="#path1"
       xlink:href="#path1"
       transform="matrix(0.88951381,-0.4189146,0.4189146,0.88951381,1791.5463,-854.33433)" /><use
       id="use157"
       inkscape:spray-origin="#path1-3"
       xlink:href="#path1-3"
       transform="matrix(0.92724407,-0.41956541,0.41956541,0.92724407,1625.1273,-406.28881)" /><use
       id="use158"
       inkscape:spray-origin="#path1-3"
       xlink:href="#path1-3"
       transform="matrix(0.93920448,0.2387931,-0.2387931,0.93920448,1357.5996,52.968646)" /><use
       id="use159"
       inkscape:spray-origin="#g16"
       xlink:href="#g16"
       transform="matrix(0.84460341,0.46351158,-0.46351158,0.84460341,1472.0155,-161.21832)" /></g></svg>
